<?xml version="1.0" encoding="utf-8"?>
<!-- Generator: Adobe Illustrator 15.0.2, SVG Export Plug-In . SVG Version: 6.00 Build 0)  -->
<!DOCTYPE svg PUBLIC "-//W3C//DTD SVG 1.1//EN" "http://www.w3.org/Graphics/SVG/1.1/DTD/svg11.dtd">
<svg version="1.1" id="Ebene_1" xmlns="http://www.w3.org/2000/svg" xmlns:xlink="http://www.w3.org/1999/xlink" x="0px" y="0px"
	 width="32px" height="32px" viewBox="0 0 32 32" enable-background="new 0 0 32 32" xml:space="preserve">
<g transform="scale(.125,.125)">
	<rect fill="#F05A22" width="256" height="256"/>
	<rect x="198.4" y="89.6" fill="#FCB813" width="57.6" height="25.601"/>
	<rect x="198.4" y="115.2" fill="#FFF100" width="57.6" height="25.601"/>
	<rect x="198.4" y="140.801" fill="#FCB813" width="57.6" height="25.6"/>
	<polygon fill="#FCB813" points="0,89.6 76.801,166.4 102.4,166.4 102.4,140.801 51.201,89.6 	"/>
	<polygon fill="#FFF100" points="189.439,104.96 153.6,140.801 153.6,166.4 189.439,166.4 	"/>
	<polygon fill="#FCB813" points="153.6,89.6 189.439,89.6 189.439,104.96 153.6,140.801 128,115.2 	"/>
	<polygon fill="#FFF100" points="0,89.6 35.841,125.441 35.841,166.4 0,166.4 	"/>
	<polygon fill="#FFF100" points="102.4,89.6 76.801,89.6 76.801,115.2 128,166.4 153.6,140.801 	"/>
</g>
</svg>
